HIERARCHY
ROOT hip
{
	OFFSET 0.000000 0.000000 0.000000 
	CHANNELS 6 Xposition Yposition Zposition Xrotation Zrotation Yrotation
	JOINT abdomen
	{
		OFFSET 0.000000 3.402643 0.000000 
		CHANNELS 3 Xrotation Zrotation Yrotation
		JOINT chest
		{
			OFFSET 0.000000 8.438565 -0.680529 
			CHANNELS 3 Xrotation Zrotation Yrotation
			JOINT neck
			{
				OFFSET 0.000000 10.207942 -0.272212 
				CHANNELS 3 Xrotation Zrotation Yrotation
				JOINT head
				{
					OFFSET 0.000000 3.130431 0.000000 
					CHANNELS 3 Xrotation Zrotation Yrotation
					End Site
					{
						OFFSET 0.000000 3.130435 0.000000 
					}
				}
			}
			JOINT lCollar
			{
				OFFSET 3.470700 6.669187 -0.816635 
				CHANNELS 3 Yrotation Zrotation Xrotation
				JOINT lShldr
				{
					OFFSET 3.198488 0.000000 0.000000 
					CHANNELS 3 Zrotation Yrotation Xrotation
					JOINT lForeArm
					{
						OFFSET 10.139888 0.000000 0.000000 
						CHANNELS 3 Yrotation Zrotation Xrotation
						JOINT lHand
						{
							OFFSET 8.370511 0.000000 0.000000 
							CHANNELS 3 Zrotation Yrotation Xrotation
							End Site
							{
								OFFSET 4.083176 0.000000 0.000000 
							}
						}
					}
				}
			}
			JOINT rCollar
			{
				OFFSET -3.470700 6.669187 -0.816635 
				CHANNELS 3 Yrotation Zrotation Xrotation
				JOINT rShldr
				{
					OFFSET -3.198488 0.000000 0.000000 
					CHANNELS 3 Zrotation Yrotation Xrotation
					JOINT rForeArm
					{
						OFFSET -10.139888 0.000000 0.000000 
						CHANNELS 3 Yrotation Zrotation Xrotation
						JOINT rHand
						{
							OFFSET -8.370511 0.000000 0.000000 
							CHANNELS 3 Zrotation Yrotation Xrotation
							End Site
							{
								OFFSET -4.083176 0.000000 0.000000 
							}
						}
					}
				}
			}
		}
	}
	JOINT lThigh
	{
		OFFSET 5.308129 -1.633274 1.361059 
		CHANNELS 3 Xrotation Zrotation Yrotation
		JOINT lShin
		{
			OFFSET -2.041588 -20.007561 0.000000 
			CHANNELS 3 Xrotation Zrotation Yrotation
			JOINT lFoot
			{
				OFFSET 0.000000 -19.190928 -1.224953 
				CHANNELS 3 Xrotation Yrotation Zrotation
				End Site
				{
					OFFSET 0.000000 -2.449906 4.627600 
				}
			}
		}
	}
	JOINT rThigh
	{
		OFFSET -5.308129 -1.633274 1.361059 
		CHANNELS 3 Xrotation Zrotation Yrotation
		JOINT rShin
		{
			OFFSET 2.041588 -20.007561 0.000000 
			CHANNELS 3 Xrotation Zrotation Yrotation
			JOINT rFoot
			{
				OFFSET 0.000000 -19.190928 -1.224953 
				CHANNELS 3 Xrotation Yrotation Zrotation
				End Site
				{
					OFFSET 0.000000 -2.449906 4.627600 
				}
			}
		}
	}
}
MOTION
Frames: 10
Frame Time: 0.033333
0.064591 49.155449 -2.548193 0.195315 0.273436 -0.907225 0.000000 0.000000 0.000000 -3.017580 -0.068265 0.286802 4.756967 0.144786 0.288593 6.240165 -0.439079 0.242730 0.889029 9.831285 -2.230725 -1.972243 9.474380 0.083787 2.495201 -1.281880 5.317864 0.990457 -3.457602 -3.448310 -0.569171 -9.613629 -2.267762 1.146137 -18.390837 -0.204454 -0.591545 2.361112 7.683527 -3.377324 3.692300 -3.607164 1.677953 3.854516 0.639695 5.061183 -4.106924 -0.738844 -6.894533 -0.003463 0.009131 1.081503 -5.089705 -5.724160 6.473552 4.383191 -0.131529 -7.263186 -0.047209 0.545797 
0.058675 49.172314 -2.686470 0.117188 0.136718 -0.673525 0.000000 0.000000 0.000000 -2.792972 0.087786 0.151967 5.000290 0.161135 0.203965 6.181509 -0.595171 0.240016 0.611260 9.618871 -2.017879 -1.570933 9.573680 0.544532 2.494589 -1.423243 5.404902 0.343718 -3.623566 -3.409473 -0.595195 -9.690723 -2.071531 1.180711 -18.106899 -0.488344 -0.543000 2.285237 7.631555 -2.991539 3.951264 -3.585371 1.763900 4.006444 0.727250 4.656058 -4.169313 -1.022094 -6.484366 -0.013529 0.047344 1.385432 -4.907656 -5.810750 5.720407 4.536608 -0.301095 -6.726992 -0.027328 0.404382 
0.057292 49.174576 -2.848090 0.449219 0.068357 -0.292421 0.000000 0.000000 0.000000 -2.919923 0.039012 -0.138709 5.107117 0.230453 0.090647 6.044859 -0.399991 0.388968 0.466473 9.831676 -2.135488 -1.744453 9.689858 0.202195 2.500970 -1.219891 5.529422 0.166733 -3.614536 -3.398795 -0.840048 -9.561295 -2.173396 1.143831 -17.530245 -0.692934 -0.524095 2.206556 8.097729 -2.596386 4.220429 -3.562231 1.112016 4.041506 0.546839 4.864058 -4.028807 -1.102918 -6.396472 -0.003222 -0.022773 0.925896 -4.835900 -5.817277 5.607758 4.553335 -0.893972 -6.492386 -0.027192 0.425524 
0.037409 49.183006 -2.992269 0.468753 0.195306 0.021162 0.000000 0.000000 0.000000 -2.822270 -0.107292 -0.297445 5.282580 0.070918 -0.187430 6.074194 -0.253659 0.235814 0.247084 9.508968 -2.057253 -1.361368 9.631722 0.182718 2.501093 -1.238175 5.550125 -0.493480 -3.722018 -3.358190 -0.834254 -9.668069 -2.079808 1.093098 -17.286257 -0.647889 -0.490524 2.350889 7.505485 -1.497164 4.532470 -3.488418 1.052588 3.958277 0.493847 4.514481 -4.116170 -1.274158 -6.005855 -0.008538 0.028210 0.722111 -4.890859 -5.836396 5.839268 4.510244 -1.238692 -6.531699 -0.034409 0.411680 
0.027217 49.197102 -3.135214 0.380860 0.078123 0.166548 0.000000 0.000000 0.000000 -2.617190 -0.078044 -0.230808 5.380364 0.091249 -0.173521 6.259766 0.000000 0.107422 0.248549 9.888997 -1.853635 -1.633937 9.309371 0.296395 2.488673 -1.373689 5.098354 -0.107492 -3.288397 -3.391290 -0.930069 -9.403548 -1.904007 0.969517 -17.021914 -0.946442 -0.498226 2.414040 6.970358 -0.417767 4.695289 -3.413609 0.934841 4.112209 0.597775 4.530001 -4.150480 -1.577982 -5.800768 -0.000337 0.031800 0.954682 -4.669248 -5.754919 5.047857 4.471090 -1.554709 -5.906538 -0.018020 0.386243 
0.056661 49.190441 -3.274660 0.195313 -0.009766 0.195278 0.000000 0.000000 0.000000 -2.363282 0.048787 -0.246154 5.625041 0.080374 -0.066606 6.113281 -0.039026 0.187244 0.031818 9.836143 -1.605625 -1.406103 9.407565 0.406894 2.492452 -1.382347 5.275198 -0.532553 -3.558009 -3.355752 -0.830274 -9.243000 -1.654730 0.973703 -16.707233 -1.729017 -0.557096 2.142650 7.725705 -0.120904 4.654246 -3.395828 0.594546 4.106840 0.520913 5.279738 -4.012543 -1.425042 -6.025389 -0.004453 -0.001962 0.935125 -4.659160 -5.794078 5.063386 4.554757 -1.511942 -5.701988 -0.027459 0.339299 
0.038163 49.221390 -3.397482 0.048828 -0.009766 0.058584 0.000000 0.000000 0.000000 -2.187500 0.039034 -0.079616 5.810606 -0.002578 -0.023465 5.917963 -0.117059 0.083616 0.182111 9.830277 -1.441958 -1.532887 9.113251 -0.107768 2.504485 -1.201093 5.674981 -0.457278 -3.670979 -3.360584 -0.483450 -9.098510 -1.477287 0.759209 -16.747471 -1.364603 -0.558886 2.296570 7.456551 -0.000171 4.769011 -3.388892 1.140666 4.163419 0.594109 4.162456 -4.086173 -1.550069 -5.322267 -0.003463 0.009131 1.374499 -4.573789 -5.755451 4.105272 4.523280 -1.528683 -5.057477 -0.015444 0.301401 
0.037159 49.241276 -3.508980 -0.039063 0.019531 0.009752 0.000000 0.000000 0.000000 -2.070313 -0.019519 -0.018826 5.986305 0.062103 -0.001002 5.771465 -0.214581 0.108271 -0.020927 9.912553 -1.320947 -1.445043 9.378263 0.424487 2.492840 -1.371999 5.284336 -0.561291 -3.735780 -3.353984 -0.212709 -8.959295 -1.355583 0.689121 -16.728096 -1.322088 -0.526464 2.296061 7.299384 0.122986 4.678463 -3.380936 1.512862 4.080331 0.535183 3.254991 -4.026612 -1.131559 -4.697239 -0.007436 -0.024393 1.542438 -4.540655 -5.688797 3.768254 4.450860 -1.517365 -4.803531 -0.015489 0.301160 
0.026712 49.270344 -3.583415 -0.009766 -0.009766 -0.009764 0.000000 0.000000 0.000000 -2.031250 0.000000 0.000000 5.888671 0.008215 -0.008337 5.791016 -0.009754 0.000479 0.041715 9.588451 -1.292441 -1.039042 9.330224 0.591514 2.484753 -1.505193 5.028253 -0.391733 -3.950820 -3.364256 -0.281783 -9.065349 -1.330552 0.884469 -16.503696 -1.204250 -0.499771 2.324830 7.456168 -0.059431 4.775284 -3.392463 1.880366 4.152348 0.586985 2.154416 -4.096171 -1.138890 -4.003906 0.004518 -0.008689 2.038676 -4.399625 -5.603570 2.370584 4.408499 -1.712957 -3.963766 -0.018123 0.278154 
0.024070 49.250080 -3.649533 -0.039063 -0.087891 -0.019471 0.000000 0.000000 0.000000 -1.972656 0.019520 0.048156 5.664202 0.160470 0.003400 6.435532 -0.214690 0.066721 0.273257 10.032181 -1.245769 -1.519433 9.074668 0.088098 2.492350 -1.336027 5.233192 -0.926193 -3.698415 -3.331662 -0.298145 -8.918943 -1.272114 0.928349 -16.327196 -1.452551 -0.494976 2.235583 7.629238 -0.233134 4.725845 -3.402352 1.257316 4.252151 0.616292 3.482314 -4.098291 -1.539039 -4.667953 -0.014895 0.004256 1.599869 -4.401709 -5.567788 3.210902 4.410211 -1.580213 -4.325098 -0.019195 0.288576 
